<svg width="24" height="24" viewBox="0 0 24 24" fill="none" xmlns="http://www.w3.org/2000/svg">
<path d="M20.9869 12.4864C20.8932 14.2225 20.2986 15.8944 19.275 17.2998C18.2514 18.7052 16.8426 19.7841 15.2189 20.4059C13.5953 21.0278 11.8262 21.166 10.1257 20.8039C8.42514 20.4418 6.86587 19.5949 5.63638 18.3656C4.40688 17.1362 3.5598 15.577 3.19753 13.8765C2.83526 12.176 2.97331 10.4069 3.59499 8.78322C4.21668 7.15948 5.29537 5.75059 6.70069 4.72683C8.10601 3.70308 9.77778 3.1083 11.5139 3.0144C11.9189 2.9924 12.1309 3.4744 11.9159 3.8174C11.1968 4.96795 10.8889 6.32827 11.0424 7.67635C11.1959 9.02443 11.8018 10.2807 12.7612 11.2401C13.7206 12.1995 14.9769 12.8054 16.325 12.9589C17.673 13.1124 19.0334 12.8045 20.1839 12.0854C20.5279 11.8704 21.0089 12.0814 20.9869 12.4864Z" stroke="#404040" stroke-width="1.5" stroke-linecap="round" stroke-linejoin="round"/>
</svg>
