<svg width="1808" height="569" viewBox="0 0 1808 569" fill="none" xmlns="http://www.w3.org/2000/svg">
<line x1="9.46094" y1="1" x2="9.46094" y2="568" stroke="black" stroke-opacity="0.2" stroke-width="2" stroke-linecap="round" stroke-dasharray="0.53 16.87"/>
<line x1="43.2578" y1="1" x2="43.2578" y2="568" stroke="black" stroke-opacity="0.2" stroke-width="2" stroke-linecap="round" stroke-dasharray="0.53 16.87"/>
<line x1="77.0469" y1="1" x2="77.0469" y2="568" stroke="black" stroke-opacity="0.2" stroke-width="2" stroke-linecap="round" stroke-dasharray="0.53 16.87"/>
<line x1="110.844" y1="1" x2="110.844" y2="568" stroke="black" stroke-opacity="0.2" stroke-width="2" stroke-linecap="round" stroke-dasharray="0.53 16.87"/>
<line x1="144.641" y1="1" x2="144.641" y2="568" stroke="black" stroke-opacity="0.2" stroke-width="2" stroke-linecap="round" stroke-dasharray="0.53 16.87"/>
<line x1="178.43" y1="1" x2="178.43" y2="568" stroke="black" stroke-opacity="0.2" stroke-width="2" stroke-linecap="round" stroke-dasharray="0.53 16.87"/>
<line x1="212.227" y1="1" x2="212.227" y2="568" stroke="black" stroke-opacity="0.2" stroke-width="2" stroke-linecap="round" stroke-dasharray="0.53 16.87"/>
<line x1="246.016" y1="1" x2="246.016" y2="568" stroke="black" stroke-opacity="0.2" stroke-width="2" stroke-linecap="round" stroke-dasharray="0.53 16.87"/>
<line x1="279.812" y1="1" x2="279.812" y2="568" stroke="black" stroke-opacity="0.2" stroke-width="2" stroke-linecap="round" stroke-dasharray="0.53 16.87"/>
<line x1="313.609" y1="1" x2="313.609" y2="568" stroke="black" stroke-opacity="0.2" stroke-width="2" stroke-linecap="round" stroke-dasharray="0.53 16.87"/>
<line x1="347.398" y1="1" x2="347.398" y2="568" stroke="black" stroke-opacity="0.2" stroke-width="2" stroke-linecap="round" stroke-dasharray="0.53 16.87"/>
<line x1="381.195" y1="1" x2="381.195" y2="568" stroke="black" stroke-opacity="0.2" stroke-width="2" stroke-linecap="round" stroke-dasharray="0.53 16.87"/>
<line x1="414.992" y1="1" x2="414.992" y2="568" stroke="black" stroke-opacity="0.2" stroke-width="2" stroke-linecap="round" stroke-dasharray="0.53 16.87"/>
<line x1="448.781" y1="1" x2="448.781" y2="568" stroke="black" stroke-opacity="0.2" stroke-width="2" stroke-linecap="round" stroke-dasharray="0.53 16.87"/>
<line x1="482.578" y1="1" x2="482.578" y2="568" stroke="black" stroke-opacity="0.2" stroke-width="2" stroke-linecap="round" stroke-dasharray="0.53 16.87"/>
<line x1="516.367" y1="1" x2="516.367" y2="568" stroke="black" stroke-opacity="0.2" stroke-width="2" stroke-linecap="round" stroke-dasharray="0.53 16.87"/>
<line x1="550.164" y1="1" x2="550.164" y2="568" stroke="black" stroke-opacity="0.2" stroke-width="2" stroke-linecap="round" stroke-dasharray="0.53 16.87"/>
<line x1="583.961" y1="1" x2="583.961" y2="568" stroke="black" stroke-opacity="0.2" stroke-width="2" stroke-linecap="round" stroke-dasharray="0.53 16.87"/>
<line x1="617.75" y1="1" x2="617.75" y2="568" stroke="black" stroke-opacity="0.2" stroke-width="2" stroke-linecap="round" stroke-dasharray="0.53 16.87"/>
<line x1="651.547" y1="1" x2="651.547" y2="568" stroke="black" stroke-opacity="0.2" stroke-width="2" stroke-linecap="round" stroke-dasharray="0.53 16.87"/>
<line x1="685.336" y1="1" x2="685.336" y2="568" stroke="black" stroke-opacity="0.2" stroke-width="2" stroke-linecap="round" stroke-dasharray="0.53 16.87"/>
<line x1="719.133" y1="1" x2="719.133" y2="568" stroke="black" stroke-opacity="0.2" stroke-width="2" stroke-linecap="round" stroke-dasharray="0.53 16.87"/>
<line x1="752.93" y1="1" x2="752.93" y2="568" stroke="black" stroke-opacity="0.2" stroke-width="2" stroke-linecap="round" stroke-dasharray="0.53 16.87"/>
<line x1="786.719" y1="1" x2="786.719" y2="568" stroke="black" stroke-opacity="0.2" stroke-width="2" stroke-linecap="round" stroke-dasharray="0.53 16.87"/>
<line x1="820.516" y1="1" x2="820.516" y2="568" stroke="black" stroke-opacity="0.2" stroke-width="2" stroke-linecap="round" stroke-dasharray="0.53 16.87"/>
<line x1="854.312" y1="1" x2="854.312" y2="568" stroke="black" stroke-opacity="0.2" stroke-width="2" stroke-linecap="round" stroke-dasharray="0.53 16.87"/>
<line x1="888.102" y1="1" x2="888.102" y2="568" stroke="black" stroke-opacity="0.2" stroke-width="2" stroke-linecap="round" stroke-dasharray="0.53 16.87"/>
<line x1="921.898" y1="1" x2="921.898" y2="568" stroke="black" stroke-opacity="0.2" stroke-width="2" stroke-linecap="round" stroke-dasharray="0.53 16.87"/>
<line x1="955.688" y1="1" x2="955.688" y2="568" stroke="black" stroke-opacity="0.2" stroke-width="2" stroke-linecap="round" stroke-dasharray="0.53 16.87"/>
<line x1="989.484" y1="1" x2="989.484" y2="568" stroke="black" stroke-opacity="0.2" stroke-width="2" stroke-linecap="round" stroke-dasharray="0.53 16.87"/>
<line x1="1023.28" y1="1" x2="1023.28" y2="568" stroke="black" stroke-opacity="0.2" stroke-width="2" stroke-linecap="round" stroke-dasharray="0.53 16.87"/>
<line x1="1057.07" y1="1" x2="1057.07" y2="568" stroke="black" stroke-opacity="0.2" stroke-width="2" stroke-linecap="round" stroke-dasharray="0.53 16.87"/>
<line x1="1090.87" y1="1" x2="1090.87" y2="568" stroke="black" stroke-opacity="0.2" stroke-width="2" stroke-linecap="round" stroke-dasharray="0.53 16.87"/>
<line x1="1124.66" y1="1" x2="1124.66" y2="568" stroke="black" stroke-opacity="0.2" stroke-width="2" stroke-linecap="round" stroke-dasharray="0.53 16.87"/>
<line x1="1158.45" y1="1" x2="1158.45" y2="568" stroke="black" stroke-opacity="0.2" stroke-width="2" stroke-linecap="round" stroke-dasharray="0.53 16.87"/>
<line x1="1192.25" y1="1" x2="1192.25" y2="568" stroke="black" stroke-opacity="0.2" stroke-width="2" stroke-linecap="round" stroke-dasharray="0.53 16.87"/>
<line x1="1226.04" y1="1" x2="1226.04" y2="568" stroke="black" stroke-opacity="0.2" stroke-width="2" stroke-linecap="round" stroke-dasharray="0.53 16.87"/>
<line x1="1259.84" y1="1" x2="1259.84" y2="568" stroke="black" stroke-opacity="0.2" stroke-width="2" stroke-linecap="round" stroke-dasharray="0.53 16.87"/>
<line x1="1293.63" y1="1" x2="1293.63" y2="568" stroke="black" stroke-opacity="0.2" stroke-width="2" stroke-linecap="round" stroke-dasharray="0.53 16.87"/>
<line x1="1327.42" y1="1" x2="1327.42" y2="568" stroke="black" stroke-opacity="0.2" stroke-width="2" stroke-linecap="round" stroke-dasharray="0.53 16.87"/>
<line x1="1361.22" y1="1" x2="1361.22" y2="568" stroke="black" stroke-opacity="0.2" stroke-width="2" stroke-linecap="round" stroke-dasharray="0.53 16.87"/>
<line x1="1395.02" y1="1" x2="1395.02" y2="568" stroke="black" stroke-opacity="0.2" stroke-width="2" stroke-linecap="round" stroke-dasharray="0.53 16.87"/>
<line x1="1428.8" y1="1" x2="1428.8" y2="568" stroke="black" stroke-opacity="0.2" stroke-width="2" stroke-linecap="round" stroke-dasharray="0.53 16.87"/>
<line x1="1462.6" y1="1" x2="1462.6" y2="568" stroke="black" stroke-opacity="0.2" stroke-width="2" stroke-linecap="round" stroke-dasharray="0.53 16.87"/>
<line x1="1496.39" y1="1" x2="1496.39" y2="568" stroke="black" stroke-opacity="0.2" stroke-width="2" stroke-linecap="round" stroke-dasharray="0.53 16.87"/>
<line x1="1530.19" y1="1" x2="1530.19" y2="568" stroke="black" stroke-opacity="0.2" stroke-width="2" stroke-linecap="round" stroke-dasharray="0.53 16.87"/>
<line x1="1563.98" y1="1" x2="1563.98" y2="568" stroke="black" stroke-opacity="0.2" stroke-width="2" stroke-linecap="round" stroke-dasharray="0.53 16.87"/>
<line x1="1597.77" y1="1" x2="1597.77" y2="568" stroke="black" stroke-opacity="0.2" stroke-width="2" stroke-linecap="round" stroke-dasharray="0.53 16.87"/>
<line x1="1631.57" y1="1" x2="1631.57" y2="568" stroke="black" stroke-opacity="0.2" stroke-width="2" stroke-linecap="round" stroke-dasharray="0.53 16.87"/>
<line x1="1665.36" y1="1" x2="1665.36" y2="568" stroke="black" stroke-opacity="0.2" stroke-width="2" stroke-linecap="round" stroke-dasharray="0.53 16.87"/>
<line x1="1699.16" y1="1" x2="1699.16" y2="568" stroke="black" stroke-opacity="0.2" stroke-width="2" stroke-linecap="round" stroke-dasharray="0.53 16.87"/>
<line x1="1732.95" y1="1" x2="1732.95" y2="568" stroke="black" stroke-opacity="0.2" stroke-width="2" stroke-linecap="round" stroke-dasharray="0.53 16.87"/>
<line x1="1766.74" y1="1" x2="1766.74" y2="568" stroke="black" stroke-opacity="0.2" stroke-width="2" stroke-linecap="round" stroke-dasharray="0.53 16.87"/>
<line x1="1800.54" y1="1" x2="1800.54" y2="568" stroke="black" stroke-opacity="0.2" stroke-width="2" stroke-linecap="round" stroke-dasharray="0.53 16.87"/>
</svg>
